<svg width="1024" height="1024" viewBox="0 0 1024 1024" fill="none" xmlns="http://www.w3.org/2000/svg">
<rect width="1024" height="1024" fill="#F5F5F5"/>
<path d="M614 171C669.228 171 714 215.772 714 271V513.919C698.126 508.895 681.361 505.876 664 505.164V271C664 243.386 641.614 221 614 221H302C274.386 221 252 243.386 252 271V711C252 738.614 274.386 761 302 761H474.927C481.31 779.06 490.32 795.879 501.496 811H302L300.707 810.992C246.074 810.3 202 765.797 202 711V271C202 216.203 246.074 171.7 300.707 171.008L302 171H614Z" fill="black"/>
<path d="M462 196V171V196ZM320 246H295H320ZM342.676 489.289L323.614 473.114L342.676 489.289ZM489.323 489.288L470.26 505.463L489.323 489.288ZM462 196V221C475.807 221 487 232.193 487 246H512H537C537 204.579 503.421 171 462 171V196ZM512 246H487V486H512H537V246H512ZM489.323 489.288L508.385 473.113L457.937 413.659L438.875 429.834L419.812 446.008L470.26 505.463L489.323 489.288ZM393.125 429.834L374.063 413.659L323.614 473.114L342.676 489.289L361.738 505.463L412.187 446.008L393.125 429.834ZM320 486H345V246H320H295V486H320ZM320 246H345C345 232.193 356.193 221 370 221V196V171C328.579 171 295 204.579 295 246H320ZM370 196V221H462V196V171H370V196ZM342.676 489.289L323.614 473.114C324.592 471.961 326.752 470.295 330.889 470.705C333.259 470.94 337.129 472.05 340.512 475.584C344.109 479.343 345 483.59 345 486H320H295C295 494.416 297.754 503.222 304.389 510.155C310.809 516.863 318.891 519.761 325.958 520.461C339.49 521.802 352.988 515.775 361.738 505.463L342.676 489.289ZM438.875 429.834L457.937 413.659C435.972 387.772 396.029 387.772 374.063 413.659L393.125 429.834L412.187 446.008C414.184 443.655 417.815 443.655 419.812 446.008L438.875 429.834ZM512 486H487C487 483.59 487.891 479.342 491.489 475.583C494.871 472.049 498.742 470.94 501.111 470.705C505.247 470.295 507.407 471.96 508.385 473.113L489.323 489.288L470.26 505.463C479.01 515.775 492.509 521.802 506.041 520.462C513.107 519.761 521.19 516.863 527.61 510.155C534.246 503.223 537 494.416 537 486H512Z" fill="black"/>
<path d="M656 537C744.366 537 816 608.634 816 697C816 726.443 808.044 754.026 794.17 777.723L916.781 877.011C927.511 885.7 929.165 901.442 920.477 912.172C911.787 922.902 896.045 924.557 885.314 915.868L762.494 816.409C734.208 841.654 696.897 857 656 857C567.634 857 496 785.366 496 697C496 608.634 567.634 537 656 537ZM656 587C595.249 587 546 636.249 546 697C546 757.751 595.249 807 656 807C716.751 807 766 757.751 766 697C766 636.249 716.751 587 656 587Z" fill="black"/>
</svg>
