<svg width="725" height="751" viewBox="0 0 725 751" fill="none" xmlns="http://www.w3.org/2000/svg">
    <path d="M412 0C467.228 0 512 44.7715 512 100V342.919C496.126 337.895 479.361 334.876 462 334.164V100C462 72.3858 439.614 50 412 50H100C72.3858 50 50 72.3858 50 100V540C50 567.614 72.3858 590 100 590H272.927C279.31 608.06 288.32 624.879 299.496 640H100L98.707 639.992C44.0744 639.3 0 594.797 0 540V100C0 45.2032 44.0744 0.700078 98.707 0.0078125L100 0H412Z" fill="black"/>
    <path d="M260 25V0V25ZM118 75H93H118ZM140.676 318.289L121.614 302.114L140.676 318.289ZM287.323 318.288L268.26 334.463L287.323 318.288ZM260 25V50C273.807 50 285 61.1929 285 75H310H335C335 33.5786 301.421 3.8147e-06 260 0V25ZM310 75H285V315H310H335V75H310ZM287.323 318.288L306.385 302.113L255.937 242.659L236.875 258.834L217.812 275.008L268.26 334.463L287.323 318.288ZM191.125 258.834L172.063 242.659L121.614 302.114L140.676 318.289L159.738 334.463L210.187 275.008L191.125 258.834ZM118 315H143V75H118H93V315H118ZM118 75H143C143 61.1929 154.193 50 168 50V25V0C126.579 0 93 33.5786 93 75H118ZM168 25V50H260V25V0H168V25ZM140.676 318.289L121.614 302.114C122.592 300.961 124.752 299.295 128.889 299.705C131.259 299.94 135.129 301.05 138.512 304.584C142.109 308.343 143 312.59 143 315H118H93C93 323.416 95.7539 332.222 102.389 339.155C108.809 345.863 116.891 348.761 123.958 349.461C137.49 350.802 150.988 344.775 159.738 334.463L140.676 318.289ZM236.875 258.834L255.937 242.659C233.972 216.772 194.029 216.772 172.063 242.659L191.125 258.834L210.187 275.008C212.184 272.655 215.815 272.655 217.812 275.008L236.875 258.834ZM310 315H285C285 312.59 285.891 308.342 289.489 304.583C292.871 301.049 296.742 299.94 299.111 299.705C303.247 299.295 305.407 300.96 306.385 302.113L287.323 318.288L268.26 334.463C277.01 344.775 290.509 350.802 304.041 349.462C311.107 348.761 319.19 345.863 325.61 339.155C332.246 332.223 335 323.416 335 315H310Z" fill="black"/>
    <path d="M454 366C542.366 366 614 437.634 614 526C614 555.443 606.044 583.026 592.17 606.723L714.781 706.011C725.511 714.7 727.165 730.442 718.477 741.172C709.787 751.902 694.045 753.557 683.314 744.868L560.494 645.409C532.208 670.654 494.897 686 454 686C365.634 686 294 614.366 294 526C294 437.634 365.634 366 454 366ZM454 416C393.249 416 344 465.249 344 526C344 586.751 393.249 636 454 636C514.751 636 564 586.751 564 526C564 465.249 514.751 416 454 416Z" fill="black"/>
</svg>
